<mxfile host="Electron" modified="2023-11-23T06:18:22.268Z" agent="Mozilla/5.0 (Windows NT 10.0; Win64; x64) AppleWebKit/537.36 (KHTML, like Gecko) draw.io/21.2.8 Chrome/112.0.5615.165 Electron/24.2.0 Safari/537.36" etag="Qyn0WcttNR1en0kjvkuo" version="21.2.8" type="device">
  <diagram name="Page-1" id="J4eO9nVUZauvVbExk5FZ">
    <mxGraphModel dx="1353" dy="490" grid="1" gridSize="10" guides="1" tooltips="1" connect="1" arrows="1" fold="1" page="1" pageScale="1" pageWidth="827" pageHeight="1169" math="0" shadow="0">
      <root>
        <mxCell id="0" />
        <mxCell id="1" parent="0" />
        <mxCell id="6Q5VVy5FNHI0aDFn693Z-1" value="" style="rounded=1;whiteSpace=wrap;html=1;fillColor=#f8cecc;strokeColor=#222020;strokeWidth=1;" vertex="1" parent="1">
          <mxGeometry x="165" y="131" width="190" height="100" as="geometry" />
        </mxCell>
        <mxCell id="6Q5VVy5FNHI0aDFn693Z-2" value="&lt;b&gt;&lt;font face=&quot;Verdana&quot; style=&quot;font-size: 16px;&quot;&gt;JobManager&lt;/font&gt;&lt;/b&gt;" style="text;html=1;align=center;verticalAlign=middle;resizable=0;points=[];autosize=1;strokeColor=none;fillColor=none;" vertex="1" parent="1">
          <mxGeometry x="165" y="131" width="130" height="30" as="geometry" />
        </mxCell>
        <mxCell id="6Q5VVy5FNHI0aDFn693Z-3" value="&lt;b style=&quot;font-size: 14px;&quot;&gt;&lt;font style=&quot;font-size: 14px;&quot; face=&quot;Verdana&quot;&gt;Checkpoint&lt;br&gt;Coordinator&lt;/font&gt;&lt;/b&gt;" style="rounded=1;whiteSpace=wrap;html=1;fillColor=#ffe6cc;strokeColor=#151513;" vertex="1" parent="1">
          <mxGeometry x="175" y="161" width="170" height="60" as="geometry" />
        </mxCell>
        <mxCell id="6Q5VVy5FNHI0aDFn693Z-11" style="edgeStyle=orthogonalEdgeStyle;rounded=0;orthogonalLoop=1;jettySize=auto;html=1;exitX=1;exitY=0.5;exitDx=0;exitDy=0;entryX=0;entryY=0.5;entryDx=0;entryDy=0;" edge="1" parent="1" source="6Q5VVy5FNHI0aDFn693Z-4" target="6Q5VVy5FNHI0aDFn693Z-10">
          <mxGeometry relative="1" as="geometry" />
        </mxCell>
        <mxCell id="6Q5VVy5FNHI0aDFn693Z-4" value="&lt;b&gt;&lt;font face=&quot;Verdana&quot; style=&quot;font-size: 14px;&quot;&gt;Source&lt;/font&gt;&lt;/b&gt;" style="rounded=0;whiteSpace=wrap;html=1;fillColor=#dae8fc;strokeColor=#020203;" vertex="1" parent="1">
          <mxGeometry x="-120" y="300" width="90" height="50" as="geometry" />
        </mxCell>
        <mxCell id="6Q5VVy5FNHI0aDFn693Z-5" value="" style="endArrow=classic;html=1;rounded=0;exitX=0;exitY=0.75;exitDx=0;exitDy=0;entryX=0.5;entryY=0;entryDx=0;entryDy=0;" edge="1" parent="1" source="6Q5VVy5FNHI0aDFn693Z-3">
          <mxGeometry width="50" height="50" relative="1" as="geometry">
            <mxPoint x="60" y="190" as="sourcePoint" />
            <mxPoint x="-75" y="300" as="targetPoint" />
          </mxGeometry>
        </mxCell>
        <mxCell id="6Q5VVy5FNHI0aDFn693Z-9" value="&lt;font face=&quot;Verdana&quot; style=&quot;font-size: 14px;&quot;&gt;1. 请求触发ck，产生Barrier&lt;/font&gt;" style="edgeLabel;html=1;align=center;verticalAlign=middle;resizable=0;points=[];" vertex="1" connectable="0" parent="6Q5VVy5FNHI0aDFn693Z-5">
          <mxGeometry x="0.547" y="1" relative="1" as="geometry">
            <mxPoint x="24" y="-26" as="offset" />
          </mxGeometry>
        </mxCell>
        <mxCell id="6Q5VVy5FNHI0aDFn693Z-17" style="edgeStyle=orthogonalEdgeStyle;rounded=0;orthogonalLoop=1;jettySize=auto;html=1;exitX=1;exitY=0.5;exitDx=0;exitDy=0;" edge="1" parent="1" source="6Q5VVy5FNHI0aDFn693Z-10" target="6Q5VVy5FNHI0aDFn693Z-16">
          <mxGeometry relative="1" as="geometry" />
        </mxCell>
        <mxCell id="6Q5VVy5FNHI0aDFn693Z-33" style="edgeStyle=orthogonalEdgeStyle;rounded=0;orthogonalLoop=1;jettySize=auto;html=1;exitX=0.5;exitY=0;exitDx=0;exitDy=0;entryX=0.5;entryY=1;entryDx=0;entryDy=0;dashed=1;" edge="1" parent="1" source="6Q5VVy5FNHI0aDFn693Z-10" target="6Q5VVy5FNHI0aDFn693Z-1">
          <mxGeometry relative="1" as="geometry" />
        </mxCell>
        <mxCell id="6Q5VVy5FNHI0aDFn693Z-10" value="&lt;b&gt;&lt;font face=&quot;Verdana&quot; style=&quot;font-size: 14px;&quot;&gt;Transformations...&lt;/font&gt;&lt;/b&gt;" style="rounded=0;whiteSpace=wrap;html=1;fillColor=#dae8fc;strokeColor=#020203;" vertex="1" parent="1">
          <mxGeometry x="150" y="300" width="220" height="50" as="geometry" />
        </mxCell>
        <mxCell id="6Q5VVy5FNHI0aDFn693Z-13" style="edgeStyle=orthogonalEdgeStyle;rounded=0;orthogonalLoop=1;jettySize=auto;html=1;exitX=0.5;exitY=0;exitDx=0;exitDy=0;entryX=0.5;entryY=1;entryDx=0;entryDy=0;" edge="1" parent="1" source="6Q5VVy5FNHI0aDFn693Z-12" target="6Q5VVy5FNHI0aDFn693Z-4">
          <mxGeometry relative="1" as="geometry" />
        </mxCell>
        <mxCell id="6Q5VVy5FNHI0aDFn693Z-12" value="&lt;b&gt;&lt;font style=&quot;font-size: 14px;&quot; face=&quot;Verdana&quot;&gt;State&lt;/font&gt;&lt;/b&gt;" style="rounded=1;whiteSpace=wrap;html=1;fillColor=#d5e8d4;strokeColor=#000000;" vertex="1" parent="1">
          <mxGeometry x="-103.75" y="400" width="57.5" height="40" as="geometry" />
        </mxCell>
        <mxCell id="6Q5VVy5FNHI0aDFn693Z-15" style="edgeStyle=orthogonalEdgeStyle;rounded=0;orthogonalLoop=1;jettySize=auto;html=1;exitX=0.5;exitY=0;exitDx=0;exitDy=0;entryX=0.5;entryY=1;entryDx=0;entryDy=0;" edge="1" parent="1" source="6Q5VVy5FNHI0aDFn693Z-14" target="6Q5VVy5FNHI0aDFn693Z-10">
          <mxGeometry relative="1" as="geometry" />
        </mxCell>
        <mxCell id="6Q5VVy5FNHI0aDFn693Z-14" value="&lt;b&gt;&lt;font style=&quot;font-size: 14px;&quot; face=&quot;Verdana&quot;&gt;State&lt;/font&gt;&lt;/b&gt;" style="rounded=1;whiteSpace=wrap;html=1;fillColor=#d5e8d4;strokeColor=#000000;" vertex="1" parent="1">
          <mxGeometry x="231.25" y="400" width="57.5" height="40" as="geometry" />
        </mxCell>
        <mxCell id="6Q5VVy5FNHI0aDFn693Z-50" style="edgeStyle=orthogonalEdgeStyle;rounded=0;orthogonalLoop=1;jettySize=auto;html=1;exitX=1;exitY=0.5;exitDx=0;exitDy=0;" edge="1" parent="1" source="6Q5VVy5FNHI0aDFn693Z-16" target="6Q5VVy5FNHI0aDFn693Z-49">
          <mxGeometry relative="1" as="geometry" />
        </mxCell>
        <mxCell id="6Q5VVy5FNHI0aDFn693Z-16" value="&lt;b&gt;&lt;font face=&quot;Verdana&quot; style=&quot;font-size: 14px;&quot;&gt;Sink&lt;/font&gt;&lt;/b&gt;" style="rounded=0;whiteSpace=wrap;html=1;fillColor=#dae8fc;strokeColor=#020203;" vertex="1" parent="1">
          <mxGeometry x="450" y="300" width="90" height="50" as="geometry" />
        </mxCell>
        <mxCell id="6Q5VVy5FNHI0aDFn693Z-19" style="edgeStyle=orthogonalEdgeStyle;rounded=0;orthogonalLoop=1;jettySize=auto;html=1;exitX=0.5;exitY=0;exitDx=0;exitDy=0;entryX=0.5;entryY=1;entryDx=0;entryDy=0;" edge="1" parent="1" source="6Q5VVy5FNHI0aDFn693Z-18" target="6Q5VVy5FNHI0aDFn693Z-16">
          <mxGeometry relative="1" as="geometry" />
        </mxCell>
        <mxCell id="6Q5VVy5FNHI0aDFn693Z-18" value="&lt;b&gt;&lt;font style=&quot;font-size: 14px;&quot; face=&quot;Verdana&quot;&gt;State&lt;/font&gt;&lt;/b&gt;" style="rounded=1;whiteSpace=wrap;html=1;fillColor=#d5e8d4;strokeColor=#000000;" vertex="1" parent="1">
          <mxGeometry x="466.25" y="400" width="57.5" height="40" as="geometry" />
        </mxCell>
        <mxCell id="6Q5VVy5FNHI0aDFn693Z-21" value="&lt;span style=&quot;color: rgb(0, 0, 0); font-size: 14px; font-style: normal; font-variant-ligatures: normal; font-variant-caps: normal; font-weight: 400; letter-spacing: normal; orphans: 2; text-align: center; text-indent: 0px; text-transform: none; widows: 2; word-spacing: 0px; -webkit-text-stroke-width: 0px; background-color: rgb(255, 255, 255); text-decoration-thickness: initial; text-decoration-style: initial; text-decoration-color: initial; float: none; display: inline !important;&quot;&gt;&lt;font face=&quot;Verdana&quot;&gt;2. Source产生Barrier&lt;br&gt;将状态异步写入外部设备&lt;br&gt;&lt;/font&gt;&lt;/span&gt;" style="text;whiteSpace=wrap;html=1;" vertex="1" parent="1">
          <mxGeometry y="440" width="160" height="40" as="geometry" />
        </mxCell>
        <mxCell id="6Q5VVy5FNHI0aDFn693Z-23" value="&lt;font style=&quot;font-size: 14px;&quot; face=&quot;Verdana&quot;&gt;&lt;b&gt;HDFS&lt;/b&gt;&lt;/font&gt;" style="rounded=0;whiteSpace=wrap;html=1;fillColor=#f9f7ed;strokeColor=#36393d;" vertex="1" parent="1">
          <mxGeometry x="-20" y="555" width="570" height="60" as="geometry" />
        </mxCell>
        <mxCell id="6Q5VVy5FNHI0aDFn693Z-24" value="" style="endArrow=classic;html=1;rounded=0;exitX=0.5;exitY=1;exitDx=0;exitDy=0;entryX=0.223;entryY=-0.071;entryDx=0;entryDy=0;entryPerimeter=0;" edge="1" parent="1" source="6Q5VVy5FNHI0aDFn693Z-12" target="6Q5VVy5FNHI0aDFn693Z-23">
          <mxGeometry width="50" height="50" relative="1" as="geometry">
            <mxPoint x="40" y="440" as="sourcePoint" />
            <mxPoint x="90" y="390" as="targetPoint" />
          </mxGeometry>
        </mxCell>
        <mxCell id="6Q5VVy5FNHI0aDFn693Z-26" value="" style="curved=1;endArrow=classic;html=1;rounded=0;exitX=0;exitY=0.5;exitDx=0;exitDy=0;entryX=0;entryY=0.5;entryDx=0;entryDy=0;dashed=1;" edge="1" parent="1" source="6Q5VVy5FNHI0aDFn693Z-4" target="6Q5VVy5FNHI0aDFn693Z-3">
          <mxGeometry width="50" height="50" relative="1" as="geometry">
            <mxPoint x="-40" y="310" as="sourcePoint" />
            <mxPoint x="10" y="260" as="targetPoint" />
            <Array as="points">
              <mxPoint x="-160" y="280" />
              <mxPoint x="-100" y="180" />
            </Array>
          </mxGeometry>
        </mxCell>
        <mxCell id="6Q5VVy5FNHI0aDFn693Z-28" value="&lt;span style=&quot;color: rgb(0, 0, 0); font-size: 14px; font-style: normal; font-variant-ligatures: normal; font-variant-caps: normal; font-weight: 400; letter-spacing: normal; orphans: 2; text-align: center; text-indent: 0px; text-transform: none; widows: 2; word-spacing: 0px; -webkit-text-stroke-width: 0px; background-color: rgb(255, 255, 255); text-decoration-thickness: initial; text-decoration-style: initial; text-decoration-color: initial; float: none; display: inline !important;&quot;&gt;&lt;font face=&quot;Verdana&quot;&gt;3. Source将备份后的地址，名称，状态回执上报给Coordinator&lt;br&gt;&lt;/font&gt;&lt;/span&gt;" style="text;whiteSpace=wrap;html=1;" vertex="1" parent="1">
          <mxGeometry x="-147" y="131" width="160" height="40" as="geometry" />
        </mxCell>
        <mxCell id="6Q5VVy5FNHI0aDFn693Z-29" value="&lt;span style=&quot;color: rgb(0, 0, 0); font-size: 14px; font-style: normal; font-variant-ligatures: normal; font-variant-caps: normal; font-weight: 400; letter-spacing: normal; orphans: 2; text-align: center; text-indent: 0px; text-transform: none; widows: 2; word-spacing: 0px; -webkit-text-stroke-width: 0px; background-color: rgb(255, 255, 255); text-decoration-thickness: initial; text-decoration-style: initial; text-decoration-color: initial; float: none; display: inline !important;&quot;&gt;&lt;font face=&quot;Verdana&quot;&gt;4. 向下游发送Barrier&lt;br&gt;&lt;/font&gt;&lt;/span&gt;" style="text;whiteSpace=wrap;html=1;" vertex="1" parent="1">
          <mxGeometry x="-16" y="298" width="160" height="40" as="geometry" />
        </mxCell>
        <mxCell id="6Q5VVy5FNHI0aDFn693Z-32" value="" style="endArrow=classic;html=1;rounded=0;exitX=0.5;exitY=1;exitDx=0;exitDy=0;entryX=0.491;entryY=-0.017;entryDx=0;entryDy=0;entryPerimeter=0;" edge="1" parent="1" source="6Q5VVy5FNHI0aDFn693Z-14" target="6Q5VVy5FNHI0aDFn693Z-23">
          <mxGeometry width="50" height="50" relative="1" as="geometry">
            <mxPoint x="130" y="510" as="sourcePoint" />
            <mxPoint x="180" y="460" as="targetPoint" />
          </mxGeometry>
        </mxCell>
        <mxCell id="6Q5VVy5FNHI0aDFn693Z-34" value="" style="endArrow=classic;html=1;rounded=0;exitX=0.5;exitY=1;exitDx=0;exitDy=0;" edge="1" parent="1" source="6Q5VVy5FNHI0aDFn693Z-18">
          <mxGeometry width="50" height="50" relative="1" as="geometry">
            <mxPoint x="270" y="550" as="sourcePoint" />
            <mxPoint x="400" y="550" as="targetPoint" />
          </mxGeometry>
        </mxCell>
        <mxCell id="6Q5VVy5FNHI0aDFn693Z-35" value="" style="endArrow=classic;html=1;rounded=0;exitX=0.5;exitY=0;exitDx=0;exitDy=0;entryX=1;entryY=0.5;entryDx=0;entryDy=0;dashed=1;" edge="1" parent="1" source="6Q5VVy5FNHI0aDFn693Z-16" target="6Q5VVy5FNHI0aDFn693Z-3">
          <mxGeometry width="50" height="50" relative="1" as="geometry">
            <mxPoint x="470" y="310" as="sourcePoint" />
            <mxPoint x="520" y="260" as="targetPoint" />
          </mxGeometry>
        </mxCell>
        <mxCell id="6Q5VVy5FNHI0aDFn693Z-37" value="&lt;b&gt;&lt;font style=&quot;font-size: 13px;&quot; face=&quot;Verdana&quot;&gt;ck-1&lt;/font&gt;&lt;/b&gt;" style="rounded=0;whiteSpace=wrap;html=1;fillColor=#ffcccc;strokeColor=#36393d;" vertex="1" parent="1">
          <mxGeometry x="450" y="567.5" width="46" height="35" as="geometry" />
        </mxCell>
        <mxCell id="6Q5VVy5FNHI0aDFn693Z-38" value="" style="curved=1;endArrow=classic;html=1;rounded=0;exitX=1;exitY=0.5;exitDx=0;exitDy=0;entryX=1;entryY=0.5;entryDx=0;entryDy=0;" edge="1" parent="1" source="6Q5VVy5FNHI0aDFn693Z-3" target="6Q5VVy5FNHI0aDFn693Z-37">
          <mxGeometry width="50" height="50" relative="1" as="geometry">
            <mxPoint x="510" y="370" as="sourcePoint" />
            <mxPoint x="560" y="320" as="targetPoint" />
            <Array as="points">
              <mxPoint x="550" y="240" />
              <mxPoint x="590" y="400" />
              <mxPoint x="560" y="510" />
            </Array>
          </mxGeometry>
        </mxCell>
        <mxCell id="6Q5VVy5FNHI0aDFn693Z-39" value="&lt;span style=&quot;color: rgb(0, 0, 0); font-size: 14px; font-style: normal; font-variant-ligatures: normal; font-variant-caps: normal; font-weight: 400; letter-spacing: normal; orphans: 2; text-align: center; text-indent: 0px; text-transform: none; widows: 2; word-spacing: 0px; -webkit-text-stroke-width: 0px; background-color: rgb(255, 255, 255); text-decoration-thickness: initial; text-decoration-style: initial; text-decoration-color: initial; float: none; display: inline !important;&quot;&gt;&lt;font face=&quot;Verdana&quot;&gt;5. 所有Task备份完成，将本次完成的ck元数据集合存入外部设备&lt;br&gt;&lt;/font&gt;&lt;/span&gt;" style="text;whiteSpace=wrap;html=1;" vertex="1" parent="1">
          <mxGeometry x="590" y="400" width="160" height="40" as="geometry" />
        </mxCell>
        <mxCell id="6Q5VVy5FNHI0aDFn693Z-40" style="edgeStyle=orthogonalEdgeStyle;rounded=0;orthogonalLoop=1;jettySize=auto;html=1;exitX=0.5;exitY=1;exitDx=0;exitDy=0;" edge="1" parent="1" source="6Q5VVy5FNHI0aDFn693Z-39" target="6Q5VVy5FNHI0aDFn693Z-39">
          <mxGeometry relative="1" as="geometry" />
        </mxCell>
        <mxCell id="6Q5VVy5FNHI0aDFn693Z-41" value="" style="endArrow=classic;html=1;rounded=0;exitX=0.056;exitY=0.993;exitDx=0;exitDy=0;exitPerimeter=0;strokeColor=none;" edge="1" parent="1" source="6Q5VVy5FNHI0aDFn693Z-3" target="6Q5VVy5FNHI0aDFn693Z-4">
          <mxGeometry width="50" height="50" relative="1" as="geometry">
            <mxPoint x="100" y="380" as="sourcePoint" />
            <mxPoint x="150" y="330" as="targetPoint" />
          </mxGeometry>
        </mxCell>
        <mxCell id="6Q5VVy5FNHI0aDFn693Z-42" value="" style="endArrow=classic;html=1;rounded=0;exitX=0.108;exitY=1.007;exitDx=0;exitDy=0;exitPerimeter=0;entryX=1;entryY=0;entryDx=0;entryDy=0;fillColor=#ffcccc;strokeColor=#db2814;dashed=1;" edge="1" parent="1" source="6Q5VVy5FNHI0aDFn693Z-3" target="6Q5VVy5FNHI0aDFn693Z-4">
          <mxGeometry width="50" height="50" relative="1" as="geometry">
            <mxPoint x="100" y="380" as="sourcePoint" />
            <mxPoint x="150" y="330" as="targetPoint" />
          </mxGeometry>
        </mxCell>
        <mxCell id="6Q5VVy5FNHI0aDFn693Z-44" value="" style="endArrow=classic;html=1;rounded=0;exitX=0.414;exitY=0.993;exitDx=0;exitDy=0;exitPerimeter=0;strokeColor=none;entryX=0.426;entryY=-0.036;entryDx=0;entryDy=0;entryPerimeter=0;" edge="1" parent="1" source="6Q5VVy5FNHI0aDFn693Z-3" target="6Q5VVy5FNHI0aDFn693Z-10">
          <mxGeometry width="50" height="50" relative="1" as="geometry">
            <mxPoint x="195" y="231" as="sourcePoint" />
            <mxPoint x="-20" y="317" as="targetPoint" />
          </mxGeometry>
        </mxCell>
        <mxCell id="6Q5VVy5FNHI0aDFn693Z-45" value="" style="endArrow=classic;html=1;rounded=0;exitX=0.405;exitY=1.02;exitDx=0;exitDy=0;exitPerimeter=0;strokeColor=none;" edge="1" parent="1" source="6Q5VVy5FNHI0aDFn693Z-3">
          <mxGeometry width="50" height="50" relative="1" as="geometry">
            <mxPoint x="205" y="241" as="sourcePoint" />
            <mxPoint x="244" y="300" as="targetPoint" />
          </mxGeometry>
        </mxCell>
        <mxCell id="6Q5VVy5FNHI0aDFn693Z-46" value="" style="endArrow=classic;html=1;rounded=0;exitX=0.372;exitY=0.98;exitDx=0;exitDy=0;exitPerimeter=0;strokeColor=#fd0d0d;dashed=1;" edge="1" parent="1" source="6Q5VVy5FNHI0aDFn693Z-3">
          <mxGeometry width="50" height="50" relative="1" as="geometry">
            <mxPoint x="100" y="380" as="sourcePoint" />
            <mxPoint x="238" y="300" as="targetPoint" />
          </mxGeometry>
        </mxCell>
        <mxCell id="6Q5VVy5FNHI0aDFn693Z-47" value="" style="endArrow=classic;html=1;rounded=0;exitX=0.955;exitY=0.993;exitDx=0;exitDy=0;exitPerimeter=0;entryX=0.1;entryY=-0.068;entryDx=0;entryDy=0;entryPerimeter=0;dashed=1;strokeColor=#f50505;" edge="1" parent="1" source="6Q5VVy5FNHI0aDFn693Z-3" target="6Q5VVy5FNHI0aDFn693Z-16">
          <mxGeometry width="50" height="50" relative="1" as="geometry">
            <mxPoint x="350" y="330" as="sourcePoint" />
            <mxPoint x="400" y="280" as="targetPoint" />
          </mxGeometry>
        </mxCell>
        <mxCell id="6Q5VVy5FNHI0aDFn693Z-48" value="&lt;span style=&quot;color: rgb(0, 0, 0); font-size: 14px; font-style: normal; font-variant-ligatures: normal; font-variant-caps: normal; font-weight: 400; letter-spacing: normal; orphans: 2; text-align: center; text-indent: 0px; text-transform: none; widows: 2; word-spacing: 0px; -webkit-text-stroke-width: 0px; background-color: rgb(255, 255, 255); text-decoration-thickness: initial; text-decoration-style: initial; text-decoration-color: initial; float: none; display: inline !important;&quot;&gt;&lt;font face=&quot;Verdana&quot;&gt;6. 通知所有算子&lt;br&gt;ck已完成&lt;br&gt;&lt;/font&gt;&lt;/span&gt;" style="text;whiteSpace=wrap;html=1;" vertex="1" parent="1">
          <mxGeometry x="288.75" y="250" width="111.25" height="40" as="geometry" />
        </mxCell>
        <mxCell id="6Q5VVy5FNHI0aDFn693Z-49" value="&lt;b&gt;外部系统&lt;/b&gt;" style="shape=cylinder3;whiteSpace=wrap;html=1;boundedLbl=1;backgroundOutline=1;size=15;fillColor=#fff2cc;strokeColor=#130f01;gradientColor=#ffd966;" vertex="1" parent="1">
          <mxGeometry x="670" y="282.5" width="70" height="85" as="geometry" />
        </mxCell>
        <mxCell id="6Q5VVy5FNHI0aDFn693Z-51" value="&lt;span style=&quot;color: rgb(0, 0, 0); font-size: 14px; font-style: normal; font-variant-ligatures: normal; font-variant-caps: normal; font-weight: 400; letter-spacing: normal; orphans: 2; text-indent: 0px; text-transform: none; widows: 2; word-spacing: 0px; -webkit-text-stroke-width: 0px; background-color: rgb(255, 255, 255); text-decoration-thickness: initial; text-decoration-style: initial; text-decoration-color: initial; float: none; display: inline !important;&quot;&gt;&lt;font face=&quot;Verdana&quot;&gt;7.sink收到消息后&lt;br&gt;&lt;div style=&quot;&quot;&gt;将数据写出&lt;/div&gt;&lt;/font&gt;&lt;/span&gt;" style="text;whiteSpace=wrap;html=1;" vertex="1" parent="1">
          <mxGeometry x="550" y="282.5" width="160" height="40" as="geometry" />
        </mxCell>
      </root>
    </mxGraphModel>
  </diagram>
</mxfile>
